<!-- Edit link icon -->


<svg id="edit-link-icon" data-name="Layer 1" xmlns="http://www.w3.org/2000/svg" width="64" height="64" viewBox="0 0 64 64"><defs></defs><path style="fill:none" d="M31.9,2.6A29.5,29.5,0,1,0,61.3,32,29.4,29.4,0,0,0,31.9,2.6ZM18.5,45.5v-6l1,1,4,4,1,1Zm20-12h0l-5,5-1,1-2,2L27,45l-.5.5-3-3-2-2-3-3h0L19,37l3.5-3.5,2-2,1-1,5-5h0l1-1,1,1h0l1,1,4,4,1,1h0l1,1Zm5-5-2,2-1,1-1-1-1-1-4-4-1-1-1-1,1-1,2-2,2-2,1,1,1,1,4,4,1,1,1,1Z"/><path d="M32,0A32,32,0,1,0,64,32,32,32,0,0,0,32,0Zm-.1,61.5A29.5,29.5,0,1,1,61.3,32,29.5,29.5,0,0,1,31.9,61.5Z"/><polygon points="38.5 31.5 37.5 30.5 33.5 26.5 32.5 25.5 32.5 25.5 31.5 24.5 30.5 25.5 30.5 25.5 25.5 30.5 24.5 31.5 22.5 33.5 19 37 18.5 37.5 18.5 37.5 21.5 40.5 23.5 42.5 26.5 45.5 27 45 30.5 41.5 32.5 39.5 33.5 38.5 38.5 33.5 38.5 33.5 39.5 32.5 38.5 31.5 38.5 31.5"/><polygon points="43.5 24.5 39.5 20.5 38.5 19.5 37.5 18.5 35.5 20.5 33.5 22.5 32.5 23.5 33.5 24.5 34.5 25.5 38.5 29.5 39.5 30.5 40.5 31.5 41.5 30.5 43.5 28.5 45.5 26.5 44.5 25.5 43.5 24.5"/><polygon points="19.5 40.5 18.5 39.5 18.5 45.5 24.5 45.5 23.5 44.5 19.5 40.5"/></svg>